<svg id="Layer_3" data-name="Layer 3" xmlns="http://www.w3.org/2000/svg" xmlns:xlink="http://www.w3.org/1999/xlink" viewBox="0 0 290.6 287.83"><defs><style>.cls-1{fill:url(#linear-gradient);}.cls-2{fill:#b9529f;}.cls-3,.cls-4{fill:none;stroke:#fff;stroke-miterlimit:10;}.cls-3{stroke-width:2px;}.cls-4{stroke-width:4px;}</style><linearGradient id="linear-gradient" x1="142.92" y1="264.69" x2="135.48" y2="134.91" gradientUnits="userSpaceOnUse"><stop offset="0.02" stop-color="#c59b6c"/><stop offset="0.37" stop-color="#c3996a"/><stop offset="0.55" stop-color="#bb9163"/><stop offset="0.68" stop-color="#ae8558"/><stop offset="0.79" stop-color="#9c7247"/><stop offset="0.89" stop-color="#845b32"/><stop offset="0.93" stop-color="#774e26"/></linearGradient></defs><g id="Layer_5" data-name="Layer 5"><path class="cls-1" d="M72,161.92l49.16,82.91h36.05l44.79-84Z"/></g><g id="Layer_4" data-name="Layer 4"><path class="cls-2" d="M104,52.83C86.89,64,80.58,80.46,77,89.83a92,92,0,0,0-6,30,35.26,35.26,0,0,0-13,17c-2.45,7.15-5.15,23.26,5,30,6.89,4.58,17.45,3.35,26-3,.38,10.29,4.62,17,8,17,3.06,0,6.55-5.51,8-13,3.37,2.45,15.51,10.63,32,9a45.61,45.61,0,0,0,20-7c-.3,14.37,2.32,25,7,26,4.24.88,9.69-6.28,12-11a25.72,25.72,0,0,0,2-16c12.11,4.67,25.21,2.28,33-6,7.42-7.89,7.19-18.1,7-21-1-15.87-14.67-24.22-16-25,.42-7.25.44-25.29-11-43-3.1-4.79-19.43-28.75-49-31C123.36,41.41,109.32,49.36,104,52.83Z"/></g><g id="Layer_6" data-name="Layer 6"><path class="cls-3" d="M150.82,133.83c.32-6.38-5.69-11.62-13.43-11.71"/><path class="cls-3" d="M122.83,133.5c.31-6.38,6.83-11.47,14.56-11.38"/><path class="cls-3" d="M124.35,99c-5.28-8.33-15.18-11.46-22.13-7"/><circle class="cls-3" cx="108.06" cy="112.66" r="13.06"/><path class="cls-3" d="M152.39,97.22c6.24-7.64,16.44-9.57,22.81-4.3"/><circle class="cls-3" cx="166.94" cy="112.7" r="13.06"/><path class="cls-4" d="M83.82,102.68c0-21,14.76-38,33-38"/></g></svg>