<svg id="Layer_3" data-name="Layer 3" xmlns="http://www.w3.org/2000/svg" xmlns:xlink="http://www.w3.org/1999/xlink" viewBox="0 0 290.6 287.83"><defs><style>.cls-1{fill:url(#linear-gradient);}.cls-2{fill:#f6e6d5;}.cls-3{fill:#754d25;}.cls-4{fill:none;stroke:#fff;stroke-miterlimit:10;stroke-width:4px;}</style><linearGradient id="linear-gradient" x1="151.92" y1="252.69" x2="144.48" y2="122.91" gradientUnits="userSpaceOnUse"><stop offset="0.02" stop-color="#c59b6c"/><stop offset="0.37" stop-color="#c3996a"/><stop offset="0.55" stop-color="#bb9163"/><stop offset="0.68" stop-color="#ae8558"/><stop offset="0.79" stop-color="#9c7247"/><stop offset="0.89" stop-color="#845b32"/><stop offset="0.93" stop-color="#774e26"/></linearGradient></defs><g id="Layer_5" data-name="Layer 5"><path class="cls-1" d="M81,149.92l49.16,82.91h36.05l44.79-84Z"/></g><g id="Layer_4" data-name="Layer 4"><path class="cls-2" d="M113,40.83C95.89,52,89.58,68.46,86,77.83a92,92,0,0,0-6,30,35.26,35.26,0,0,0-13,17c-2.45,7.15-5.15,23.26,5,30,6.89,4.58,17.45,3.35,26-3,.38,10.29,4.62,17,8,17,3.06,0,6.55-5.51,8-13,3.37,2.45,15.51,10.63,32,9a45.61,45.61,0,0,0,20-7c-.3,14.37,2.32,25,7,26,4.24.88,9.69-6.28,12-11a25.72,25.72,0,0,0,2-16c12.11,4.67,25.21,2.28,33-6,7.42-7.89,7.19-18.1,7-21-1-15.87-14.67-24.22-16-25,.42-7.25.44-25.29-11-43-3.1-4.79-19.43-28.75-49-31C132.36,29.41,118.32,37.36,113,40.83Z"/></g><g id="Layer_6" data-name="Layer 6"><circle class="cls-3" cx="122" cy="57.83" r="8"/><circle class="cls-3" cx="181" cy="65.83" r="8"/><circle class="cls-3" cx="124" cy="107.83" r="8"/><circle class="cls-3" cx="160" cy="135.83" r="8"/><circle class="cls-3" cx="195" cy="127.83" r="8"/><circle class="cls-3" cx="167" cy="112.83" r="5"/><circle class="cls-3" cx="116.03" cy="123.97" r="5"/><circle class="cls-3" cx="187.03" cy="108.97" r="5"/><circle class="cls-3" cx="100.03" cy="115.97" r="5"/><circle class="cls-3" cx="160.03" cy="65.97" r="5"/><circle class="cls-3" cx="106.03" cy="72.96" r="5"/><circle class="cls-3" cx="159.03" cy="46.96" r="5"/><circle class="cls-3" cx="104.5" cy="90.33" r="9.5"/><circle class="cls-3" cx="195.5" cy="92.33" r="9.5"/><circle class="cls-3" cx="136.5" cy="131.33" r="9.5"/><circle class="cls-3" cx="145.5" cy="111.33" r="9.5"/><circle class="cls-3" cx="94.5" cy="136.33" r="9.5"/><circle class="cls-3" cx="138.5" cy="80.33" r="9.5"/><circle class="cls-3" cx="142.5" cy="56.33" r="9.5"/><circle class="cls-3" cx="164.5" cy="92.33" r="9.5"/></g><g id="Layer_9" data-name="Layer 9"><path class="cls-4" d="M99,91.83c0-21,14.76-38,33-38"/></g></svg>