<svg id="Layer_3" data-name="Layer 3" xmlns="http://www.w3.org/2000/svg" xmlns:xlink="http://www.w3.org/1999/xlink" viewBox="0 0 290.6 287.83"><defs><style>.cls-1{fill:url(#linear-gradient);}.cls-2{fill:url(#New_Gradient_Swatch_1);}.cls-3{fill:none;stroke:#fff;stroke-miterlimit:10;stroke-width:4px;}</style><linearGradient id="linear-gradient" x1="150.92" y1="257.69" x2="143.48" y2="127.91" gradientUnits="userSpaceOnUse"><stop offset="0.02" stop-color="#c59b6c"/><stop offset="0.37" stop-color="#c3996a"/><stop offset="0.55" stop-color="#bb9163"/><stop offset="0.68" stop-color="#ae8558"/><stop offset="0.79" stop-color="#9c7247"/><stop offset="0.89" stop-color="#845b32"/><stop offset="0.93" stop-color="#774e26"/></linearGradient><linearGradient id="New_Gradient_Swatch_1" x1="143.18" y1="11.05" x2="145.34" y2="173.36" gradientUnits="userSpaceOnUse"><stop offset="0" stop-color="#bd2226"/><stop offset="0.05" stop-color="#be2426"/><stop offset="0.07" stop-color="#bf2c25"/><stop offset="0.09" stop-color="#c33925"/><stop offset="0.1" stop-color="#c84b24"/><stop offset="0.11" stop-color="#ce6322"/><stop offset="0.13" stop-color="#d58121"/><stop offset="0.14" stop-color="#dea41f"/><stop offset="0.15" stop-color="#e8cc1d"/><stop offset="0.15" stop-color="#f0e91b"/><stop offset="0.19" stop-color="#eee81c"/><stop offset="0.21" stop-color="#e5e61e"/><stop offset="0.23" stop-color="#d7e221"/><stop offset="0.25" stop-color="#c3dd26"/><stop offset="0.26" stop-color="#a9d52c"/><stop offset="0.28" stop-color="#89cd34"/><stop offset="0.29" stop-color="#63c23e"/><stop offset="0.3" stop-color="#38b648"/><stop offset="0.3" stop-color="#30b44a"/><stop offset="0.34" stop-color="#30b44e"/><stop offset="0.38" stop-color="#2fb259"/><stop offset="0.42" stop-color="#2db06b"/><stop offset="0.45" stop-color="#2aad85"/><stop offset="0.48" stop-color="#27a9a7"/><stop offset="0.52" stop-color="#23a5cf"/><stop offset="0.53" stop-color="#22a3dd"/><stop offset="0.55" stop-color="#2699d6"/><stop offset="0.6" stop-color="#2f7ec3"/><stop offset="0.66" stop-color="#3d59a8"/><stop offset="0.76" stop-color="#6a479c"/><stop offset="0.93" stop-color="#d41a66"/></linearGradient></defs><g id="Layer_5" data-name="Layer 5"><path class="cls-1" d="M80,154.92l49.16,82.91h36.05l44.79-84Z"/></g><g id="Layer_4" data-name="Layer 4"><path class="cls-2" d="M112,45.83C94.89,57,88.58,73.46,85,82.83a92,92,0,0,0-6,30,35.26,35.26,0,0,0-13,17c-2.45,7.15-5.15,23.26,5,30,6.89,4.58,17.45,3.35,26-3,.38,10.29,4.62,17,8,17,3.06,0,6.55-5.51,8-13,3.37,2.45,15.51,10.63,32,9a45.61,45.61,0,0,0,20-7c-.3,14.37,2.32,25,7,26,4.24.88,9.69-6.28,12-11a25.72,25.72,0,0,0,2-16c12.11,4.67,25.21,2.28,33-6,7.42-7.89,7.19-18.1,7-21-1-15.87-14.67-24.22-16-25,.42-7.25.44-25.29-11-43-3.1-4.79-19.43-28.75-49-31C131.36,34.41,117.32,42.36,112,45.83Z"/></g><g id="Layer_6" data-name="Layer 6"><path class="cls-3" d="M96.27,95.66c0-21,14.76-38,33-38"/></g></svg>