<svg id="Layer_3" data-name="Layer 3" xmlns="http://www.w3.org/2000/svg" xmlns:xlink="http://www.w3.org/1999/xlink" viewBox="0 0 290.6 287.83"><defs><style>.cls-1{fill:url(#linear-gradient);}.cls-2{fill:#6fccdd;}.cls-3{fill:none;stroke:#000;stroke-miterlimit:10;stroke-width:2px;}</style><linearGradient id="linear-gradient" x1="146.92" y1="257.69" x2="139.48" y2="127.91" gradientUnits="userSpaceOnUse"><stop offset="0.02" stop-color="#c59b6c"/><stop offset="0.37" stop-color="#c3996a"/><stop offset="0.55" stop-color="#bb9163"/><stop offset="0.68" stop-color="#ae8558"/><stop offset="0.79" stop-color="#9c7247"/><stop offset="0.89" stop-color="#845b32"/><stop offset="0.93" stop-color="#774e26"/></linearGradient></defs><g id="Layer_5" data-name="Layer 5"><path class="cls-1" d="M76,154.92l49.16,82.91h36.05l44.79-84Z"/></g><g id="Layer_4" data-name="Layer 4"><path class="cls-2" d="M108,45.83C90.89,57,84.58,73.46,81,82.83a92,92,0,0,0-6,30,35.26,35.26,0,0,0-13,17c-2.45,7.15-5.15,23.26,5,30,6.89,4.58,17.45,3.35,26-3,.38,10.29,4.62,17,8,17,3.06,0,6.55-5.51,8-13,3.37,2.45,15.51,10.63,32,9a45.61,45.61,0,0,0,20-7c-.3,14.37,2.32,25,7,26,4.24.88,9.69-6.28,12-11a25.72,25.72,0,0,0,2-16c12.11,4.67,25.21,2.28,33-6,7.42-7.89,7.19-18.1,7-21-1-15.87-14.67-24.22-16-25,.42-7.25.44-25.29-11-43-3.1-4.79-19.43-28.75-49-31C127.36,34.41,113.32,42.36,108,45.83Z"/></g><g id="Layer_6" data-name="Layer 6"><path class="cls-3" d="M155.69,137.83c.35-7.8-6.53-14.21-15.38-14.32"/><path class="cls-3" d="M123.64,137.42c.35-7.8,7.81-14,16.67-13.91"/><path class="cls-3" d="M184.12,84.17c-12.05-.67-21.3-9.37-20.67-19.45"/><path class="cls-3" d="M101.77,83.26c12.07,0,21.8-8.11,21.77-18.21"/><ellipse class="cls-3" cx="113.42" cy="104.33" rx="15.42" ry="14.87"/><ellipse class="cls-3" cx="171.23" cy="105.33" rx="15.42" ry="14.87"/></g></svg>