<svg id="Layer_3" data-name="Layer 3" xmlns="http://www.w3.org/2000/svg" xmlns:xlink="http://www.w3.org/1999/xlink" viewBox="0 0 290.6 287.83"><defs><style>.cls-1{fill:url(#linear-gradient);}.cls-2{fill:#c59b6c;}.cls-3,.cls-4{fill:none;stroke-miterlimit:10;}.cls-3{stroke:#000;stroke-width:2px;}.cls-4{stroke:#fff;stroke-width:4px;}</style><linearGradient id="linear-gradient" x1="134.92" y1="254.69" x2="127.48" y2="124.91" gradientUnits="userSpaceOnUse"><stop offset="0.02" stop-color="#c59b6c"/><stop offset="0.37" stop-color="#c3996a"/><stop offset="0.55" stop-color="#bb9163"/><stop offset="0.68" stop-color="#ae8558"/><stop offset="0.79" stop-color="#9c7247"/><stop offset="0.89" stop-color="#845b32"/><stop offset="0.93" stop-color="#774e26"/></linearGradient></defs><g id="Layer_5" data-name="Layer 5"><path class="cls-1" d="M64,151.92l49.16,82.91h36.05l44.79-84Z"/></g><g id="Layer_4" data-name="Layer 4"><path class="cls-2" d="M96,42.83C78.89,54,72.58,70.46,69,79.83a92,92,0,0,0-6,30,35.26,35.26,0,0,0-13,17c-2.45,7.15-5.15,23.26,5,30,6.89,4.58,17.45,3.35,26-3,.38,10.29,4.62,17,8,17,3.06,0,6.55-5.51,8-13,3.37,2.45,15.51,10.63,32,9a45.61,45.61,0,0,0,20-7c-.3,14.37,2.32,25,7,26,4.24.88,9.69-6.28,12-11a25.72,25.72,0,0,0,2-16c12.11,4.67,25.21,2.28,33-6,7.42-7.89,7.19-18.1,7-21-1-15.87-14.67-24.22-16-25,.42-7.25.44-25.29-11-43-3.1-4.79-19.43-28.75-49-31C115.36,31.41,101.32,39.36,96,42.83Z"/></g><g id="Layer_6" data-name="Layer 6"><path class="cls-3" d="M113.34,119.42c0,6.61,6.57,11.71,14.68,11.4"/><path class="cls-3" d="M142.69,118.3c0,6.61-6.56,12.21-14.67,12.52"/><path class="cls-3" d="M175,87.68c-11-.61-19.51-8.58-18.94-17.82"/><path class="cls-3" d="M92.47,86.12c11.06,0,20-7.43,20-16.69"/></g><g id="Layer_8" data-name="Layer 8"><path class="cls-3" d="M100.13,98.49c1.18-.36,7.06-11.11,13.12-3,2.71,3.61-2.68,12.51-12.12,19.18C91.67,111.22,86.19,104.78,87,99.5c.49-3.15,3.43-7.38,7.07-7.07,3,.26,6.06,4,6.06,7.07"/><path class="cls-3" d="M156.12,98.49c1.19-.36,7.07-11.11,13.12-3,2.71,3.61-2.68,12.51-12.11,19.18-9.47-3.42-14.95-9.86-14.13-15.14.48-3.15,3.43-7.38,7.06-7.07,3,.26,6.06,4,6.06,7.07"/><path class="cls-4" d="M79.22,89.68c0-21,14.76-38,33-38"/></g></svg>