<svg id="Layer_3" data-name="Layer 3" xmlns="http://www.w3.org/2000/svg" xmlns:xlink="http://www.w3.org/1999/xlink" viewBox="0 0 290.6 287.83"><defs><style>.cls-1{fill:url(#linear-gradient);}.cls-2{fill:#3bb54a;}.cls-3,.cls-4{fill:none;stroke:#fff;stroke-miterlimit:10;}.cls-3{stroke-width:2px;}.cls-4{stroke-width:4px;}</style><linearGradient id="linear-gradient" x1="158.92" y1="258.69" x2="151.48" y2="128.91" gradientUnits="userSpaceOnUse"><stop offset="0.02" stop-color="#c59b6c"/><stop offset="0.37" stop-color="#c3996a"/><stop offset="0.55" stop-color="#bb9163"/><stop offset="0.68" stop-color="#ae8558"/><stop offset="0.79" stop-color="#9c7247"/><stop offset="0.89" stop-color="#845b32"/><stop offset="0.93" stop-color="#774e26"/></linearGradient></defs><g id="Layer_5" data-name="Layer 5"><path class="cls-1" d="M88,155.92l49.16,82.91h36.05l44.79-84Z"/></g><g id="Layer_4" data-name="Layer 4"><path class="cls-2" d="M120,46.83C102.89,58,96.58,74.46,93,83.83a92,92,0,0,0-6,30,35.26,35.26,0,0,0-13,17c-2.45,7.15-5.15,23.26,5,30,6.89,4.58,17.45,3.35,26-3,.38,10.29,4.62,17,8,17,3.06,0,6.55-5.51,8-13,3.37,2.45,15.51,10.63,32,9a45.61,45.61,0,0,0,20-7c-.3,14.37,2.32,25,7,26,4.24.88,9.69-6.28,12-11a25.72,25.72,0,0,0,2-16c12.11,4.67,25.21,2.28,33-6,7.42-7.89,7.19-18.1,7-21-1-15.87-14.67-24.22-16-25,.42-7.25.44-25.29-11-43-3.1-4.79-19.43-28.75-49-31C139.36,35.41,125.32,43.36,120,46.83Z"/></g><g id="Layer_6" data-name="Layer 6"><path class="cls-3" d="M122.57,128.54c3.11-4.73,7.69-10.39,11.78-9.19,4.77,1.4,4.79,10.85,9.56,12.24,5.73,1.67,8.82-11.07,17.35-11.47,8.24-.39,14,11.12,17.57,8.85,2-1.26,1.75-5.82,1.32-9.23"/></g><g id="Layer_7" data-name="Layer 7"><path class="cls-3" d="M182.32,92c3,.94,5.32,2.13,5.38,3.59.12,2.68-7.43,6.65-10.77,4.48-3.67-2.38-2.88-12.59,1.8-15.25,4.88-2.79,15,2.12,16.15,9.87,1.1,7.08-5.63,13.76-12.56,14.36-7.94.69-14.06-6.75-15.26-13.46-1.41-7.9,3.69-16.46,12.56-19.75"/><path class="cls-3" d="M131.16,92.91c1.87-2.52,3.05-4.85,2.25-6.07-1.48-2.24-9.92-1-11.35,2.7-1.57,4.09,5.08,11.88,10.42,11.29,5.59-.62,10.85-10.5,7.27-17.48-3.27-6.38-12.64-7.83-18.61-4.24-6.82,4.11-7.41,13.72-4.43,19.86,3.5,7.22,12.66,11.15,21.77,8.59"/><path class="cls-4" d="M101.54,92.49c0-21,14.76-38,33-38"/></g></svg>